PathFileType	4	(X/Y/Z)	c:/Users/goper/Files/vsCode/490R/osim_files/A06/A06_Fast_04.trc
DataRate	CameraRate	NumFrames	NumMarkers	Units                	OrigDataRate	OrigDataStartFrame	OrigNumFrames
120.00	120.00	6	36	mm	120.0	601	960
                Frame#	Time	LPSIS			LASIS			LTH1			LTH2			LTH3			LTH4			LLFE			LMFE			LSH1			LSH2			LSH3			LSH4			LLMAL			LMMAL			LCAL			LMTP5			LTOE			LMTP1			RPSIS			RASIS			RTH1			RTH2			RTH3			RTH4			RLFE			RMFE			RSH1			RSH2			RSH3			RSH4			RLMAL			RMMAL			RCAL			RMTP1			RTOE			RMTP5		
		X1	Y1	Z1	X2	Y2	Z2	X3	Y3	Z3	X4	Y4	Z4	X5	Y5	Z5	X6	Y6	Z6	X7	Y7	Z7	X8	Y8	Z8	X9	Y9	Z9	X10	Y10	Z10	X11	Y11	Z11	X12	Y12	Z12	X13	Y13	Z13	X14	Y14	Z14	X15	Y15	Z15	X16	Y16	Z16	X17	Y17	Z17	X18	Y18	Z18	X19	Y19	Z19	X20	Y20	Z20	X21	Y21	Z21	X22	Y22	Z22	X23	Y23	Z23	X24	Y24	Z24	X25	Y25	Z25	X26	Y26	Z26	X27	Y27	Z27	X28	Y28	Z28	X29	Y29	Z29	X30	Y30	Z30	X31	Y31	Z31	X32	Y32	Z32	X33	Y33	Z33	X34	Y34	Z34	X35	Y35	Z35	X36	Y36	Z36

601	5.00000	-3117.19434	995.80707	184.10812	-3305.19678	947.72516	270.50980	-3345.09521	595.59149	305.64844	-3368.67358	559.68628	298.90131	-3402.79346	623.06189	299.53696	-3415.20825	583.06451	294.56766	-3421.20044	506.53082	283.42053	-3426.07593	504.38684	174.84000	-3374.36279	404.52597	293.18134	-3385.42896	360.43411	296.11328	-3433.41724	414.86377	289.20325	-3438.81079	372.95514	290.01294	-3425.75000	108.79479	245.81435	-3452.38818	131.30788	168.20351	-3369.42603	90.94405	187.71225	-3544.34570	75.62598	272.22266	-3583.41553	110.02280	226.56964	-3568.05688	100.87543	185.03979	-3130.52124	1010.14801	52.55726	-3314.49390	967.77618	13.05432	0.00000	0.00000	0.00000	-3146.83057	557.07251	-23.13011	-3212.22876	590.66223	-13.28371	-3201.49048	546.73517	-15.19558	-3154.13257	440.71521	8.03574	-3156.37964	445.40906	96.98352	-3108.31299	290.06943	26.11573	-3100.23242	243.92178	30.59357	-3166.26025	278.21436	39.98391	-3151.03564	232.37726	38.23165	-3072.12109	106.44475	31.27889	-3084.56128	112.06355	112.05061	-3012.94312	89.56824	77.21597	-3216.30908	59.23202	105.80751	-3230.88428	67.96008	67.95222	-3204.44556	54.85696	19.07560
602	5.00833	-3127.78760	994.42792	184.86769	-3316.00610	946.25299	270.72903	-3352.58594	592.54926	303.36166	-3376.38721	557.55603	297.48816	-3409.78711	620.47302	298.35559	-3424.06128	580.51129	293.81281	-3430.88403	504.79138	282.04352	-3435.96289	502.60825	173.77199	-3389.32227	401.86880	294.37595	-3402.48926	357.85278	295.52832	-3447.42554	414.65979	288.66168	-3453.90820	373.17331	289.38168	-3457.17700	107.94187	246.55563	-3481.45361	130.45421	169.59091	0.00000	0.00000	0.00000	-3577.11084	82.06852	272.75165	-3614.35547	118.53315	227.07928	-3599.45923	108.57877	185.57225	-3140.41382	1009.19293	53.20819	-3324.44019	966.55347	13.21501	-3159.59961	598.55725	-21.87937	-3152.80273	557.16626	-22.70573	-3219.13843	589.53973	-13.13977	-3207.55078	546.11707	-14.77077	-3159.00439	440.70990	8.34613	-3161.37793	445.20859	97.16619	-3110.76782	290.46634	26.31029	-3102.91748	244.48743	30.60897	-3169.23096	277.88388	40.12599	-3154.70288	232.34622	37.55573	-3073.93652	106.82155	30.36125	-3084.90015	112.33096	112.03947	-3012.01880	90.69805	77.01646	-3217.13647	59.64056	105.59763	-3231.22827	67.18551	68.39265	-3204.64258	54.85371	19.06114
603	5.01667	-3138.22095	993.02100	185.65146	-3327.02905	944.80640	270.89627	-3359.10156	590.31323	301.79504	-3384.89526	554.51648	296.15186	-3413.55737	614.60504	302.69098	-3434.17334	577.29333	293.71286	-3440.23535	502.76077	280.64771	-3445.66089	500.51526	172.75513	-3405.22827	397.17676	291.77502	-3418.98950	355.34448	294.80191	-3461.19873	414.34933	287.97919	-3469.90723	372.54327	290.93146	-3487.68823	108.09715	247.36227	-3510.25513	131.68723	170.37370	0.00000	0.00000	0.00000	-3608.49780	89.19331	273.09433	-3643.95044	127.48167	227.25661	-3629.34619	116.63326	185.82079	-3150.32788	1008.10339	54.04013	-3334.39185	965.32928	13.33020	0.00000	0.00000	0.00000	-3168.08472	553.88403	-24.69773	-3226.01245	588.29126	-12.96793	-3214.23047	545.38025	-14.47978	-3163.80469	440.50653	8.76727	-3166.53931	444.13031	96.45004	-3114.13574	290.97787	26.39717	-3105.43701	245.06654	30.66555	-3172.15649	277.60886	40.22068	-3155.82153	232.16533	38.37878	-3074.24609	107.14537	30.34836	-3085.15576	112.92522	111.84417	-3012.58862	90.95350	77.12716	-3217.36743	59.61187	105.62914	-3231.40698	66.96546	68.37920	-3204.81934	54.78994	19.07365
604	5.02500	-3148.82764	991.37665	186.65193	-3338.24536	943.21063	270.93436	-3367.58716	587.03583	300.89005	-3394.17700	551.53479	295.88284	-3422.24683	611.39703	301.89474	-3442.60864	573.93976	292.87329	-3449.53735	500.40662	279.34531	-3455.10742	497.99829	171.84560	-3419.86011	394.00830	290.86710	-3437.19385	351.32062	292.78702	-3474.73340	413.94641	287.23129	-3485.27759	373.39539	290.43954	-3517.04395	109.11755	248.07245	-3537.95068	133.46912	170.85815	0.00000	0.00000	0.00000	-3640.25610	96.07861	272.93097	-3671.95410	136.49561	226.98346	-3657.71631	124.78716	185.70335	-3160.11401	1006.92456	54.90579	-3344.25073	964.08875	13.33557	-3173.94336	597.92456	-21.27060	-3171.37500	554.92523	-23.44305	-3233.07251	587.13171	-12.74367	-3220.82520	544.39819	-14.20327	-3169.46680	439.57098	8.37701	-3173.25342	443.19949	96.57557	-3118.35889	291.22339	26.51918	-3107.95947	245.41965	30.84944	-3175.17847	277.24664	40.43585	-3159.55737	232.06528	37.85104	-3074.57422	108.06176	29.25191	-3085.41553	113.12959	111.87139	-3014.15186	91.05382	77.26665	-3216.51099	58.89071	106.60896	-3231.71118	66.75117	68.38951	-3204.97314	54.72803	19.05488
605	5.03333	-3159.53979	989.54150	187.79472	-3348.24487	941.35156	270.71170	-3375.89575	583.52875	300.22269	-3402.50366	547.96387	294.97107	-3430.81616	607.90479	301.23795	-3449.63330	570.48566	291.34570	-3458.60400	497.77090	278.14426	-3464.28882	495.41327	170.99773	-3432.60425	391.68051	289.69415	-3452.58765	348.95728	292.49487	-3488.10596	413.64087	286.54520	-3500.04346	374.05469	287.20761	-3544.86450	110.21746	248.35976	-3564.45117	135.83987	171.19759	0.00000	0.00000	0.00000	-3669.03174	103.82941	272.61993	-3698.48657	145.60976	226.42740	-3684.45093	133.02228	185.21890	-3169.76953	1005.77838	55.92903	-3354.05786	962.85645	13.26871	-3181.10010	597.49640	-20.96380	-3178.05933	554.43036	-23.01714	-3240.26709	586.12140	-12.53169	-3227.63525	543.49805	-13.98463	-3175.63037	439.39502	8.52214	-3176.76392	443.46057	97.28131	-3121.70679	291.61078	26.69632	-3111.00269	246.13431	31.03593	-3178.21631	276.87912	40.56725	-3160.99194	232.00928	38.69129	-3073.92041	108.78908	29.94674	-3085.94922	113.36665	112.10886	-3013.73096	91.96434	77.56156	-3216.82373	58.82902	106.70164	-3231.90552	66.75289	68.37794	-3205.08887	54.63760	19.05145
606	5.04167	-3170.44043	987.77844	188.89685	-3359.79810	939.65460	270.57935	-3384.50952	580.08295	299.50919	-3411.61133	543.78186	294.94812	-3439.57202	604.43939	300.52203	-3457.80347	567.33856	288.43134	-3467.57568	494.71863	277.21671	-3473.05225	492.78711	169.92426	-3447.06958	390.14520	291.34854	-3467.44409	347.45148	291.84579	-3500.83130	413.21274	285.69849	0.00000	0.00000	0.00000	-3571.67554	112.13468	248.56583	-3589.33032	138.54242	171.34250	0.00000	0.00000	0.00000	-3696.16626	111.49987	271.93878	-3723.18604	155.45013	225.82706	-3709.27637	141.40372	184.48128	-3179.77344	1004.41937	57.00514	-3363.81177	961.61633	13.05231	-3188.37427	597.01160	-20.65533	-3184.86328	554.48273	-22.70742	-3247.78931	585.08417	-12.14232	-3234.58838	542.55542	-13.67296	-3180.88623	439.08401	8.80491	-3182.39673	443.06357	97.57436	-3124.48340	292.19012	26.98782	-3113.59058	246.63667	31.26891	-3180.29639	276.46506	41.44639	-3164.50928	231.85886	38.18102	-3075.53369	108.61745	30.82563	-3086.60352	113.75987	112.38184	-3014.20947	92.71691	77.85388	-3217.30298	58.90652	106.78847	-3232.20996	66.47971	68.40130	-3205.27734	54.62904	19.09028
